<svg width="500px" height="500px" viewBox="0 0 500 500"><rect x="0" y="0" width="100" height="100" fill="hsl(331, 96.04%, 74.74499999999999%)"></rect><rect x="100" y="0" width="100" height="100" fill="hsl(335, 66.16%, 55.675%)"></rect><rect x="200" y="0" width="100" height="100" fill="hsl(320, 69.92%, 76.725%)"></rect><rect x="300" y="0" width="100" height="100" fill="hsl(333, 95.8%, 52.429999999999986%)"></rect><rect x="400" y="0" width="100" height="100" fill="hsl(348, 77.81%, 63.940000000000005%)"></rect><rect x="0" y="100" width="100" height="100" fill="hsl(337, 69.65%, 67.05%)"></rect><rect x="100" y="100" width="100" height="100" fill="hsl(161, 95.3%, 78.705%)"></rect><rect x="200" y="100" width="100" height="100" fill="hsl(322, 68.86%, 55.04%)"></rect><rect x="300" y="100" width="100" height="100" fill="hsl(127, 76.62%, 65.78%)"></rect><rect x="400" y="100" width="100" height="100" fill="hsl(52, 80.18%, 47.73%)"></rect><rect x="0" y="200" width="100" height="100" fill="hsl(203, 58.62%, 63.74999999999999%)"></rect><rect x="100" y="200" width="100" height="100" fill="hsl(214, 63.93%, 31.11%)"></rect><rect x="200" y="200" width="100" height="100" fill="hsl(264, 83.11%, 76.32%)"></rect><rect x="300" y="200" width="100" height="100" fill="hsl(358, 65.83%, 79.515%)"></rect><rect x="400" y="200" width="100" height="100" fill="hsl(161, 88.68%, 35.510000000000005%)"></rect><rect x="0" y="300" width="100" height="100" fill="hsl(274, 96.08%, 36.72%)"></rect><rect x="100" y="300" width="100" height="100" fill="hsl(163, 81.82%, 31.35%)"></rect><rect x="200" y="300" width="100" height="100" fill="hsl(344, 88.99%, 72.75%)"></rect><rect x="300" y="300" width="100" height="100" fill="hsl(350, 52.67%, 49.125%)"></rect><rect x="400" y="300" width="100" height="100" fill="hsl(273, 49.25%, 44.88999999999999%)"></rect><rect x="0" y="400" width="100" height="100" fill="hsl(175, 76.99%, 39.55%)"></rect><rect x="100" y="400" width="100" height="100" fill="hsl(209, 47.06%, 40.8%)"></rect><rect x="200" y="400" width="100" height="100" fill="hsl(139, 92.16%, 74.48%)"></rect><rect x="300" y="400" width="100" height="100" fill="hsl(145, 76.86%, 69.75%)"></rect><rect x="400" y="400" width="100" height="100" fill="hsl(360, 74.03%, 80.75%)"></rect><line x1="0" x2="0" y1="0" y2="500" stroke-width="12" stroke="#fff"></line><line x1="0" x2="500" y1="0" y2="0" stroke-width="12" stroke="#fff"></line><line x1="100" x2="100" y1="0" y2="500" stroke-width="6" stroke="#fff"></line><line x1="0" x2="500" y1="100" y2="100" stroke-width="6" stroke="#fff"></line><line x1="200" x2="200" y1="0" y2="500" stroke-width="6" stroke="#fff"></line><line x1="0" x2="500" y1="200" y2="200" stroke-width="6" stroke="#fff"></line><line x1="300" x2="300" y1="0" y2="500" stroke-width="6" stroke="#fff"></line><line x1="0" x2="500" y1="300" y2="300" stroke-width="6" stroke="#fff"></line><line x1="400" x2="400" y1="0" y2="500" stroke-width="6" stroke="#fff"></line><line x1="0" x2="500" y1="400" y2="400" stroke-width="6" stroke="#fff"></line><line x1="500" x2="500" y1="0" y2="500" stroke-width="12" stroke="#fff"></line><line x1="0" x2="500" y1="500" y2="500" stroke-width="12" stroke="#fff"></line></svg>
